<svg width="175" height="175" viewBox="0 0 175 175" fill="none" xmlns="http://www.w3.org/2000/svg">
<path d="M92.1015 90.6435C92.0809 90.6381 92.0687 90.6327 92.0477 90.6269C92.0427 90.6394 92.042 90.6561 92.0446 90.6773C92.0623 90.6618 92.0799 90.6545 92.1015 90.6435Z" fill="white"/>
<path d="M97.5144 107.218C96.5876 106.161 95.759 105.018 95.0447 103.808C94.7523 103.313 95.0707 102.688 95.6407 102.627C98.4372 102.331 100.816 100.145 101.236 97.2833C101.648 94.4716 100.075 91.7154 97.5638 90.5551C97.0701 90.3267 96.9029 89.685 97.2827 89.3003C99.6045 86.9473 99.1254 82.7457 96.1924 81.0129C95.7908 80.7754 95.6407 80.2591 95.9059 79.8788C100.167 73.7659 107.413 70.1586 114.9 70.4701C122.107 70.7699 128.859 74.6577 132.774 80.7465C136.613 86.7161 137.357 94.3363 134.778 100.904C132.135 107.638 126.162 112.746 119.098 114.314C112.2 115.845 104.781 113.925 99.4752 109.196C98.7818 108.578 98.1269 107.917 97.5144 107.218ZM103.299 82.8694C101.916 84.0819 103.816 86.2137 105.18 85.0154C106.543 83.8194 104.683 81.6556 103.299 82.8694ZM118.234 75.2727C116.645 73.4605 113.855 75.9092 115.442 77.7203C117.027 79.5265 119.82 77.0812 118.234 75.2727ZM117.201 89.9581C116.375 89.016 114.901 88.9087 113.964 89.7302C113.025 90.5523 112.934 92.0287 113.762 92.973C114.59 93.9174 116.066 94.0198 117.003 93.1973C117.94 92.3754 118.027 90.9001 117.201 89.9581ZM104.336 104.029C102.537 105.607 105.002 108.417 106.801 106.84C108.599 105.263 106.136 102.451 104.336 104.029ZM131.121 87.1644C129.532 85.3522 126.747 87.7977 128.334 89.608C129.921 91.418 132.71 88.977 131.121 87.1644ZM126.566 98.7571C125.504 97.5464 123.64 99.1781 124.703 100.39C125.762 101.597 127.624 99.9643 126.566 98.7571ZM118.474 107.506C116.885 105.694 114.095 108.143 115.683 109.954C117.271 111.765 120.063 109.319 118.474 107.506Z" fill="white"/>
<path d="M53.9581 112.414L54.7984 112.098L54.0376 111.621L25.6327 93.8121L47.1919 89.7094L48.4826 89.4641L47.3087 88.8741L3.06731 66.6598L52.5682 67.5273L53.8824 67.5509L52.8527 66.7333L35.6644 53.0907L69.0942 50.5081L69.9895 50.4391L69.3923 49.7686L55.3436 33.9878L124.086 50.9152C135.576 53.7447 145.265 60.8648 151.373 70.9645L151.375 70.9678L151.935 71.9187C157.408 81.4893 159.09 92.5705 156.708 103.363L156.456 104.441C153.625 115.932 146.503 125.622 136.402 131.73L135.489 132.267C126.011 137.697 114.951 139.42 104.221 137.113L104.222 137.112L104.12 137.089L104.121 137.088L34.1857 119.868L53.9581 112.414ZM84.133 86.6319C80.1998 102.598 89.7751 118.783 105.547 123.096L106.303 123.293C122.269 127.225 138.454 117.65 142.767 101.879L142.963 101.123C144.961 93.0124 143.472 84.8456 139.458 78.2081C135.57 71.7782 129.31 66.7803 121.549 64.6582L120.794 64.4622C104.827 60.5293 88.6415 70.1044 84.329 85.8766L84.133 86.6319Z" stroke="white" stroke-width="0.890607"/>
</svg>
