<svg width="180" height="108" viewBox="0 0 180 108" fill="none" xmlns="http://www.w3.org/2000/svg">
<path d="M90.8679 4.74481L93.5869 5.75064C94.0487 5.91985 94.3542 6.36049 94.3542 6.85166C94.3542 7.34282 94.0487 7.78346 93.5869 7.95267L90.8831 8.95498L89.8174 13.211C89.6858 13.7339 89.2169 14.1005 88.6776 14.1005C88.1382 14.1005 87.6694 13.7339 87.5378 13.2121L86.472 8.95615L83.7683 7.95384C83.3065 7.78346 83.001 7.34282 83.001 6.85166C83.001 6.36049 83.3065 5.91985 83.7683 5.74947L86.4861 4.74364L87.5437 0.866004C87.6835 0.354861 88.1477 0 88.6776 0C89.2075 0 89.6717 0.354863 89.8103 0.86718L90.8679 4.74481Z" fill="#313132"/>
<path d="M26.9748 28.0569C28.8916 29.3353 31.4819 28.8178 32.7603 26.901C34.0387 24.9842 33.5212 22.394 31.6044 21.1156C29.6877 19.8372 27.0974 20.3546 25.819 22.2714C24.5406 24.1882 25.0581 26.7785 26.9748 28.0569Z" fill="#313132"/>
<path d="M140.951 28.0569C142.868 29.3353 145.458 28.8178 146.737 26.901C148.015 24.9842 147.498 22.394 145.581 21.1156C143.664 19.8372 141.074 20.3546 139.796 22.2714C138.517 24.1882 139.035 26.7785 140.951 28.0569Z" fill="#313132"/>
<path d="M1.84423 61.6163L8.84405 64.1178C9.70412 64.4252 10.5707 63.6768 10.3918 62.7811L8.89322 55.2805C8.71428 54.3848 7.62666 54.0268 6.95071 54.6411L1.44942 59.6402C0.792927 60.2367 1.0089 61.3178 1.84423 61.6163Z" fill="#313132"/>
<path d="M164 61.6163L171 64.1178C171.86 64.4252 172.727 63.6768 172.548 62.7811L171.049 55.2805C170.871 54.3848 169.783 54.0268 169.107 54.6411L163.606 59.6402C162.949 60.2367 163.165 61.3178 164 61.6163Z" fill="#313132"/>
<path d="M54.6437 46.2014C53.0018 46.2014 51.6439 45.6592 50.5699 44.575C49.5063 43.4907 48.9745 42.1586 48.9745 40.5787C48.9745 38.9988 49.5063 37.6667 50.5699 36.5825C51.6439 35.4982 53.0018 34.9561 54.6437 34.9561C55.635 34.9561 56.5437 35.1936 57.3698 35.6686C58.2062 36.1436 58.8568 36.7838 59.3214 37.5893L58.0668 38.3173C57.757 37.7184 57.2923 37.2433 56.6728 36.8923C56.0635 36.5308 55.3871 36.3501 54.6437 36.3501C53.3942 36.3501 52.3719 36.7529 51.5768 37.5583C50.792 38.3637 50.3996 39.3706 50.3996 40.5787C50.3996 41.7766 50.792 42.7782 51.5768 43.5837C52.3719 44.3891 53.3942 44.7918 54.6437 44.7918C55.3871 44.7918 56.0635 44.6163 56.6728 44.2652C57.2923 43.9038 57.757 43.4288 58.0668 42.8402L59.3214 43.5527C58.8671 44.3581 58.2217 45.0035 57.3853 45.4889C56.5488 45.9639 55.635 46.2014 54.6437 46.2014ZM66.2027 38.2553H67.5503V46H66.2027V44.8848C65.6554 45.7625 64.819 46.2014 63.6934 46.2014C62.7847 46.2014 62.0567 45.9174 61.5094 45.3494C60.9621 44.7712 60.6885 43.9915 60.6885 43.0106V38.2553H62.0361V42.9331C62.0361 43.563 62.2065 44.0535 62.5472 44.4046C62.888 44.7454 63.3578 44.9157 63.9568 44.9157C64.628 44.9157 65.1701 44.7092 65.5831 44.2962C65.9962 43.8728 66.2027 43.2274 66.2027 42.36V38.2553ZM70.9495 39.5564C71.3935 38.5961 72.1989 38.1159 73.3658 38.1159V39.5254C72.7049 39.4945 72.137 39.67 71.662 40.0521C71.187 40.4342 70.9495 41.0486 70.9495 41.8953V46H69.6019V38.2553H70.9495V39.5564ZM80.6734 38.2553H82.021V46H80.6734V44.6679C80.0022 45.6902 79.0264 46.2014 77.7459 46.2014C76.6617 46.2014 75.7375 45.809 74.9733 45.0242C74.2092 44.229 73.8271 43.2635 73.8271 42.1277C73.8271 40.9918 74.2092 40.0314 74.9733 39.2466C75.7375 38.4515 76.6617 38.054 77.7459 38.054C79.0264 38.054 80.0022 38.5651 80.6734 39.5874V38.2553ZM77.9163 44.9003C78.7011 44.9003 79.3568 44.6369 79.8834 44.1103C80.4101 43.5733 80.6734 42.9125 80.6734 42.1277C80.6734 41.3429 80.4101 40.6871 79.8834 40.1605C79.3568 39.6235 78.7011 39.3551 77.9163 39.3551C77.1418 39.3551 76.4913 39.6235 75.9646 40.1605C75.438 40.6871 75.1747 41.3429 75.1747 42.1277C75.1747 42.9125 75.438 43.5733 75.9646 44.1103C76.4913 44.6369 77.1418 44.9003 77.9163 44.9003ZM88.2758 39.5564H86.2157V43.754C86.2157 44.1361 86.288 44.4098 86.4325 44.575C86.5874 44.7299 86.8198 44.8125 87.1296 44.8228C87.4393 44.8228 87.8214 44.8125 88.2758 44.7918V46C87.0986 46.1549 86.2363 46.062 85.6891 45.7212C85.1418 45.3701 84.8681 44.7144 84.8681 43.754V39.5564H83.3347V38.2553H84.8681V36.4895L86.2157 36.0868V38.2553H88.2758V39.5564ZM90.4227 42.7472C90.557 43.4391 90.8719 43.9761 91.3676 44.3581C91.8736 44.7402 92.4932 44.9312 93.2263 44.9312C94.2486 44.9312 94.9921 44.5543 95.4568 43.8005L96.603 44.4511C95.8492 45.6179 94.7133 46.2014 93.1953 46.2014C91.9665 46.2014 90.9649 45.8193 90.1904 45.0551C89.4263 44.2807 89.0442 43.3049 89.0442 42.1277C89.0442 40.9608 89.4211 39.9901 90.1749 39.2157C90.9287 38.4412 91.9046 38.054 93.1024 38.054C94.2383 38.054 95.1625 38.4567 95.875 39.2621C96.5978 40.0572 96.9593 41.0176 96.9593 42.1431C96.9593 42.3393 96.9438 42.5407 96.9128 42.7472H90.4227ZM93.1024 39.3241C92.3796 39.3241 91.7806 39.5306 91.3056 39.9437C90.8306 40.3464 90.5363 40.8885 90.4227 41.57H95.5962C95.4826 40.8369 95.1935 40.2793 94.7288 39.8972C94.2641 39.5151 93.722 39.3241 93.1024 39.3241ZM104.906 35.1574H106.253V46H104.906V44.6679C104.235 45.6902 103.259 46.2014 101.978 46.2014C100.894 46.2014 99.9698 45.809 99.2057 45.0242C98.4416 44.229 98.0595 43.2635 98.0595 42.1277C98.0595 40.9918 98.4416 40.0314 99.2057 39.2466C99.9698 38.4515 100.894 38.054 101.978 38.054C103.259 38.054 104.235 38.5651 104.906 39.5874V35.1574ZM102.149 44.9003C102.933 44.9003 103.589 44.6369 104.116 44.1103C104.642 43.5733 104.906 42.9125 104.906 42.1277C104.906 41.3429 104.642 40.6871 104.116 40.1605C103.589 39.6235 102.933 39.3551 102.149 39.3551C101.374 39.3551 100.724 39.6235 100.197 40.1605C99.6704 40.6871 99.4071 41.3429 99.4071 42.1277C99.4071 42.9125 99.6704 43.5733 100.197 44.1103C100.724 44.6369 101.374 44.9003 102.149 44.9003ZM116.442 38.054C117.527 38.054 118.451 38.4515 119.215 39.2466C119.979 40.0314 120.361 40.9918 120.361 42.1277C120.361 43.2635 119.979 44.229 119.215 45.0242C118.451 45.809 117.527 46.2014 116.442 46.2014C115.162 46.2014 114.186 45.6902 113.515 44.6679V46H112.167V35.1574H113.515V39.5874C114.186 38.5651 115.162 38.054 116.442 38.054ZM116.272 44.9003C117.047 44.9003 117.697 44.6369 118.224 44.1103C118.75 43.5733 119.014 42.9125 119.014 42.1277C119.014 41.3429 118.75 40.6871 118.224 40.1605C117.697 39.6235 117.047 39.3551 116.272 39.3551C115.487 39.3551 114.832 39.6235 114.305 40.1605C113.778 40.6871 113.515 41.3429 113.515 42.1277C113.515 42.9125 113.778 43.5733 114.305 44.1103C114.832 44.6369 115.487 44.9003 116.272 44.9003ZM127.073 38.2553H128.513L125.353 46.4802C125.023 47.3579 124.558 48.0239 123.959 48.4783C123.371 48.943 122.689 49.1495 121.915 49.0979V47.8432C122.865 47.9155 123.562 47.3889 124.006 46.2633L124.145 45.969L120.768 38.2553H122.209L124.842 44.3271L127.073 38.2553ZM44.6029 57.3774C45.0985 57.6149 45.4909 57.9556 45.78 58.3997C46.0795 58.8437 46.2292 59.3548 46.2292 59.9331C46.2292 60.8005 45.9246 61.5285 45.3154 62.1171C44.7061 62.7057 43.9626 63 43.0849 63H38.4071V52.1574H42.7441C43.5909 52.1574 44.3086 52.4414 44.8971 53.0094C45.4857 53.5773 45.78 54.2795 45.78 55.1159C45.78 56.0763 45.3876 56.8301 44.6029 57.3774ZM42.7441 53.505H39.8476V56.8197H42.7441C43.1985 56.8197 43.5806 56.6597 43.8903 56.3396C44.2001 56.0195 44.355 55.6271 44.355 55.1624C44.355 54.708 44.195 54.3208 43.8749 54.0007C43.5651 53.6702 43.1882 53.505 42.7441 53.505ZM43.0849 61.6524C43.5702 61.6524 43.9781 61.482 44.3086 61.1413C44.639 60.8005 44.8042 60.3823 44.8042 59.8866C44.8042 59.4013 44.6338 58.9883 44.2931 58.6475C43.9626 58.3067 43.5599 58.1363 43.0849 58.1363H39.8476V61.6524H43.0849ZM54.3792 62.0242C53.5841 62.809 52.6186 63.2014 51.4827 63.2014C50.3468 63.2014 49.3813 62.809 48.5862 62.0242C47.8014 61.2394 47.409 60.2739 47.409 59.1277C47.409 57.9814 47.8014 57.0159 48.5862 56.2311C49.3813 55.4464 50.3468 55.054 51.4827 55.054C52.6186 55.054 53.5841 55.4464 54.3792 56.2311C55.1743 57.0159 55.5719 57.9814 55.5719 59.1277C55.5719 60.2739 55.1743 61.2394 54.3792 62.0242ZM51.4827 61.8848C52.2571 61.8848 52.9077 61.6214 53.4343 61.0948C53.961 60.5682 54.2243 59.9125 54.2243 59.1277C54.2243 58.3429 53.961 57.6871 53.4343 57.1605C52.9077 56.6339 52.2571 56.3706 51.4827 56.3706C50.7185 56.3706 50.0731 56.6339 49.5465 57.1605C49.0199 57.6871 48.7565 58.3429 48.7565 59.1277C48.7565 59.9125 49.0199 60.5682 49.5465 61.0948C50.0731 61.6214 50.7185 61.8848 51.4827 61.8848ZM58.5081 56.5564C58.9521 55.5961 59.7575 55.1159 60.9244 55.1159V56.5254C60.2635 56.4945 59.6956 56.67 59.2206 57.0521C58.7456 57.4342 58.5081 58.0486 58.5081 58.8953V63H57.1605V55.2553H58.5081V56.5564ZM62.7642 59.7472C62.8985 60.4391 63.2134 60.9761 63.7091 61.3581C64.2151 61.7402 64.8347 61.9312 65.5678 61.9312C66.5901 61.9312 67.3336 61.5543 67.7983 60.8005L68.9445 61.4511C68.1907 62.6179 67.0548 63.2014 65.5368 63.2014C64.308 63.2014 63.3064 62.8193 62.5319 62.0551C61.7678 61.2807 61.3857 60.3049 61.3857 59.1277C61.3857 57.9608 61.7626 56.9901 62.5164 56.2157C63.2702 55.4412 64.2461 55.054 65.4439 55.054C66.5798 55.054 67.504 55.4567 68.2165 56.2621C68.9393 57.0572 69.3008 58.0176 69.3008 59.1431C69.3008 59.3393 69.2853 59.5407 69.2543 59.7472H62.7642ZM65.4439 56.3241C64.7211 56.3241 64.1222 56.5306 63.6471 56.9437C63.1721 57.3464 62.8778 57.8885 62.7642 58.57H67.9377C67.8241 57.8369 67.535 57.2793 67.0703 56.8972C66.6056 56.5151 66.0635 56.3241 65.4439 56.3241ZM77.2473 52.1574H78.5949V63H77.2473V61.6679C76.5761 62.6902 75.6003 63.2014 74.3198 63.2014C73.2355 63.2014 72.3113 62.809 71.5472 62.0242C70.7831 61.229 70.401 60.2635 70.401 59.1277C70.401 57.9918 70.7831 57.0314 71.5472 56.2466C72.3113 55.4515 73.2355 55.054 74.3198 55.054C75.6003 55.054 76.5761 55.5651 77.2473 56.5874V52.1574ZM74.4902 61.9003C75.275 61.9003 75.9307 61.6369 76.4573 61.1103C76.984 60.5733 77.2473 59.9125 77.2473 59.1277C77.2473 58.3429 76.984 57.6871 76.4573 57.1605C75.9307 56.6235 75.275 56.3551 74.4902 56.3551C73.7157 56.3551 73.0652 56.6235 72.5385 57.1605C72.0119 57.6871 71.7486 58.3429 71.7486 59.1277C71.7486 59.9125 72.0119 60.5733 72.5385 61.1103C73.0652 61.6369 73.7157 61.9003 74.4902 61.9003ZM88.3657 55.054C89.2745 55.054 90.0025 55.3431 90.5497 55.9214C91.097 56.4893 91.3707 57.2638 91.3707 58.2448V63H90.0231V58.3222C90.0231 57.6923 89.8527 57.207 89.512 56.8662C89.1712 56.5151 88.7013 56.3396 88.1024 56.3396C87.4312 56.3396 86.8891 56.5513 86.476 56.9746C86.063 57.3877 85.8565 58.0279 85.8565 58.8953V63H84.5089V52.1574H85.8565V56.3706C86.4038 55.4928 87.2402 55.054 88.3657 55.054ZM98.5957 55.2553H99.9433V63H98.5957V61.8848C98.0485 62.7625 97.212 63.2014 96.0865 63.2014C95.1778 63.2014 94.4498 62.9174 93.9025 62.3494C93.3552 61.7712 93.0815 60.9915 93.0815 60.0106V55.2553H94.4291V59.9331C94.4291 60.563 94.5995 61.0535 94.9403 61.4046C95.281 61.7454 95.7509 61.9157 96.3498 61.9157C97.021 61.9157 97.5631 61.7092 97.9762 61.2962C98.3892 60.8728 98.5957 60.2274 98.5957 59.36V55.2553ZM110.359 55.054C111.227 55.054 111.929 55.3379 112.466 55.9059C113.003 56.4635 113.271 57.2225 113.271 58.1828V63H111.924V58.2293C111.924 57.6304 111.769 57.1657 111.459 56.8352C111.149 56.5048 110.736 56.3396 110.22 56.3396C109.642 56.3396 109.177 56.5358 108.826 56.9282C108.485 57.3102 108.315 57.8988 108.315 58.694V63H106.967V58.2293C106.967 57.6304 106.817 57.1657 106.518 56.8352C106.229 56.5048 105.831 56.3396 105.325 56.3396C104.757 56.3396 104.282 56.5358 103.9 56.9282C103.528 57.3206 103.343 57.9092 103.343 58.694V63H101.995V55.2553H103.343V56.2931C103.869 55.467 104.638 55.054 105.65 55.054C106.693 55.054 107.452 55.4928 107.927 56.3706C108.464 55.4928 109.275 55.054 110.359 55.054ZM121.552 55.2553H122.9V63H121.552V61.6679C120.881 62.6902 119.905 63.2014 118.625 63.2014C117.541 63.2014 116.616 62.809 115.852 62.0242C115.088 61.229 114.706 60.2635 114.706 59.1277C114.706 57.9918 115.088 57.0314 115.852 56.2466C116.616 55.4515 117.541 55.054 118.625 55.054C119.905 55.054 120.881 55.5651 121.552 56.5874V55.2553ZM118.795 61.9003C119.58 61.9003 120.236 61.6369 120.762 61.1103C121.289 60.5733 121.552 59.9125 121.552 59.1277C121.552 58.3429 121.289 57.6871 120.762 57.1605C120.236 56.6235 119.58 56.3551 118.795 56.3551C118.021 56.3551 117.37 56.6235 116.844 57.1605C116.317 57.6871 116.054 58.3429 116.054 59.1277C116.054 59.9125 116.317 60.5733 116.844 61.1103C117.37 61.6369 118.021 61.9003 118.795 61.9003ZM128.798 55.054C129.707 55.054 130.435 55.3431 130.982 55.9214C131.53 56.4893 131.803 57.2638 131.803 58.2448V63H130.456V58.3222C130.456 57.6923 130.285 57.207 129.945 56.8662C129.604 56.5151 129.134 56.3396 128.535 56.3396C127.864 56.3396 127.322 56.5513 126.909 56.9746C126.496 57.3877 126.289 58.0279 126.289 58.8953V63H124.942V55.2553H126.289V56.3706C126.836 55.4928 127.673 55.054 128.798 55.054ZM134.846 57.3464C134.846 57.6458 134.996 57.8885 135.295 58.0744C135.595 58.2499 135.956 58.3945 136.38 58.5081C136.803 58.6113 137.226 58.7353 137.65 58.8798C138.073 59.0141 138.435 59.2516 138.734 59.5923C139.034 59.9228 139.183 60.3513 139.183 60.878C139.183 61.5801 138.91 62.1429 138.362 62.5663C137.825 62.9897 137.134 63.2014 136.287 63.2014C135.533 63.2014 134.888 63.0361 134.351 62.7057C133.814 62.3753 133.432 61.9364 133.204 61.3891L134.366 60.7231C134.49 61.0948 134.722 61.3891 135.063 61.606C135.404 61.8228 135.812 61.9312 136.287 61.9312C136.731 61.9312 137.097 61.8486 137.387 61.6834C137.676 61.5079 137.82 61.2394 137.82 60.878C137.82 60.5785 137.671 60.341 137.371 60.1654C137.072 59.9796 136.71 59.835 136.287 59.7317C135.863 59.6182 135.44 59.4891 135.017 59.3445C134.593 59.1999 134.232 58.9624 133.932 58.632C133.633 58.3016 133.483 57.8782 133.483 57.3619C133.483 56.6907 133.741 56.1382 134.258 55.7045C134.784 55.2708 135.44 55.054 136.225 55.054C136.855 55.054 137.412 55.1985 137.898 55.4877C138.393 55.7665 138.765 56.1589 139.013 56.6649L137.882 57.2999C137.603 56.639 137.051 56.3086 136.225 56.3086C135.843 56.3086 135.517 56.4015 135.249 56.5874C134.981 56.7629 134.846 57.0159 134.846 57.3464Z" fill="#858585"/>
<path fill-rule="evenodd" clip-rule="evenodd" d="M47.9771 97.7224C40.2439 99.9816 31.3154 102.23 22.7262 102.791C15.3849 103.271 8.29382 102.526 2.48968 99.3597C1.6715 98.9139 0.646925 99.2204 0.204448 100.045C-0.238703 100.87 0.0661712 101.902 0.884349 102.349C7.21595 105.802 14.9363 106.706 22.9441 106.182C31.6877 105.611 40.7774 103.348 48.6658 101.056C49.5811 102.925 51.4764 104.667 54.8153 105.952C59.9435 107.926 66.9456 107.902 74.322 106.789C85.0204 105.176 96.5288 101.33 103.928 98.5971C104.232 98.4857 104.684 98.3083 105.237 98.0745C105.405 98.4497 105.594 98.8194 105.803 99.1823C107.618 102.346 110.828 104.903 114.1 105.817C134.848 111.609 159.062 104.669 178.778 99.0206C179.669 98.7643 180.188 97.8237 179.938 96.9218C179.682 96.0199 178.751 95.4958 177.854 95.7521C158.691 101.242 135.165 108.17 114.997 102.541C112.515 101.848 110.1 99.8824 108.724 97.4818C108.569 97.214 108.434 96.9401 108.306 96.6621C111.024 95.3048 114.221 93.4127 115.941 91.3873C117.708 89.3109 118.147 87.0945 116.609 85.0011C115.287 83.2115 113.284 83.0593 111.199 83.987C108.953 84.9807 106.64 87.3038 105.891 88.394C104.488 90.4302 104.043 92.6392 104.299 94.7931C103.638 95.0744 103.101 95.2838 102.77 95.4061C95.5326 98.0785 84.2838 101.851 73.8229 103.428C67.092 104.444 60.6983 104.579 56.0186 102.778C54.0227 102.009 52.704 101.112 51.9884 100.071C53.4008 99.6452 54.7627 99.2265 56.0638 98.8269C58.637 98.0364 63.9946 96.7281 67.8225 94.3961C70.8665 92.542 72.9305 90.0198 72.8105 86.858C72.7491 85.2335 71.8162 84.1495 70.3316 83.5418C68.1132 82.6345 64.2766 83.0735 62.848 83.3794C58.5149 84.3051 52.7317 88.1371 49.8704 92.455C48.7285 94.178 48.0493 95.9804 47.9771 97.7224ZM51.5365 96.6608C52.7607 96.2897 53.9438 95.9254 55.0803 95.576C57.4823 94.8379 62.5033 93.6655 66.0775 91.4878C67.9702 90.3351 69.5155 88.954 69.4406 86.9878C69.4345 86.8348 69.2841 86.7913 69.1512 86.7288C68.9455 86.633 68.7101 86.567 68.4592 86.5154C66.7614 86.166 64.4809 86.5038 63.5474 86.7036C59.9118 87.4805 55.0756 90.7191 52.675 94.3424C52.1678 95.1077 51.7638 95.8873 51.5365 96.6608ZM107.631 93.2285C109.216 92.4067 110.876 91.4131 112.184 90.3317C112.879 89.7574 113.466 89.1668 113.837 88.5537C114.147 88.0467 114.268 87.5274 113.897 87.0258C113.749 86.8226 113.526 86.8185 113.297 86.8566C113.054 86.8974 112.805 86.9843 112.555 87.0965C110.909 87.8264 109.21 89.5317 108.663 90.3317C108.022 91.2594 107.705 92.2409 107.631 93.2285Z" fill="#313132"/>
</svg>
