<svg width="66" height="81" viewBox="0 0 66 81" fill="none" xmlns="http://www.w3.org/2000/svg">
<path d="M34.403 52.5267L48.0571 42.7634C49.2171 41.9417 49.918 40.6125 49.918 39.1867C49.918 35.5859 45.858 33.5075 42.9338 35.5859L33.0013 42.6667L23.0688 35.5859C20.1446 33.4834 16.0846 35.5859 16.0846 39.1867C16.0846 40.6125 16.7855 41.9659 17.9455 42.7875L31.5996 52.5509C32.4455 53.1309 33.5571 53.1309 34.403 52.5267Z" fill="#323232"/>
<path d="M34.403 35.6097L48.0571 25.8705C49.2171 25.0247 49.918 23.6955 49.918 22.2697C49.918 18.6689 45.858 16.5664 42.9338 18.6689L33.0013 25.7497L23.0688 18.6689C20.1446 16.5664 16.0846 18.6689 16.0846 22.2697C16.0846 23.6955 16.7855 25.0489 17.9455 25.8705L31.5996 35.6339C32.4455 36.2139 33.5571 36.2139 34.403 35.6097Z" fill="#1D1D1E"/>
</svg>
