<svg width="352" height="352" viewBox="0 0 352 352" fill="none" xmlns="http://www.w3.org/2000/svg">
<path d="M352 276.636V281.6C352 306.674 331.622 327 306.483 327H45.5172C20.3784 327 0 306.674 0 281.6V275.728C0 274.313 0.0679557 272.898 0.196933 271.483C0.333538 270.083 0.530471 268.694 0.788426 267.314L31.6868 103.979C35.7461 82.5309 54.5325 67 76.4149 67H268.619C289.827 66.9986 308.224 81.6075 312.975 102.223L350.838 266.458C351.224 268.114 351.513 269.792 351.703 271.482L351.71 271.489C351.902 273.199 351.999 274.917 352 276.636Z" fill="#51518E"/>
<path d="M352 276.103V281.054C352 306.064 331.622 326.339 306.483 326.339H45.5172C20.3784 326.339 0 306.064 0 281.054V275.197C0 273.785 0.0679557 272.374 0.196933 270.963H351.704L351.712 270.97C351.902 272.674 351.999 274.388 352 276.103Z" fill="#3E3E7A"/>
<path d="M315.29 269.452H36.6188C35.7811 269.452 35.1016 270.128 35.1016 270.962C35.1016 271.795 35.7811 272.471 36.6188 272.471H315.29C316.128 272.471 316.807 271.795 316.807 270.962C316.807 270.128 316.129 269.452 315.29 269.452Z" fill="black"/>
<path d="M349.364 266.798L349.364 266.801C349.737 268.4 350.016 270.02 350.199 271.65L350.258 272.178L350.262 272.182C350.411 273.663 350.486 275.15 350.487 276.637V281.6C350.487 305.835 330.79 325.487 306.483 325.487H45.5172C21.2103 325.487 1.51293 305.835 1.51293 281.6V275.728C1.51293 274.363 1.5784 272.995 1.70317 271.625C1.83542 270.271 2.02588 268.928 2.27517 267.594C2.27531 267.593 2.27545 267.593 2.27559 267.592L33.1734 104.26C37.097 83.5293 55.2568 68.5129 76.4149 68.5129H268.619C289.125 68.5116 306.909 82.6365 311.501 102.562L349.364 266.798Z" stroke="black" stroke-width="3.02586"/>
<path d="M304.171 159.449C304.171 200.465 246.826 233.726 176.085 233.726C105.345 233.726 48 200.465 48 159.449C48.0087 154.217 48.9341 149.026 50.7351 144.113C62.9173 110.449 114.41 85.1729 176.085 85.1729C237.76 85.1729 289.253 110.449 301.436 144.113C303.236 149.025 304.162 154.216 304.171 159.449Z" fill="#A4A4F7"/>
<path d="M175.501 88.9502C244.73 88.9502 300.851 115.339 300.851 147.89C300.851 180.442 244.73 206.83 175.501 206.83C106.271 206.83 52.3069 180.442 52.3069 147.891C52.3069 115.339 106.272 88.9502 175.501 88.9502Z" fill="#C5C5FF"/>
<path d="M305.637 159.449V159.446C305.628 154.043 304.672 148.684 302.813 143.612C296.541 126.281 280.245 111.312 257.951 100.695C235.624 90.0627 207.112 83.7066 176.085 83.7066C145.058 83.7066 116.546 90.0627 94.2199 100.695C71.9259 111.312 55.63 126.281 49.3574 143.611C47.4981 148.684 46.5428 154.044 46.5338 159.446V159.449C46.5338 180.699 61.3774 199.665 84.7794 213.237C108.219 226.83 140.503 235.192 176.085 235.192C211.667 235.192 243.952 226.83 267.391 213.237C290.793 199.665 305.637 180.699 305.637 159.449Z" stroke="black" stroke-width="2.93241"/>
<path d="M67.872 168.09C67.3344 168.698 67.3922 169.627 68.0003 170.165L68.001 170.165C92.0603 191.394 132.466 204.066 176.086 204.066C220.492 204.066 261.29 191.039 285.226 169.218C285.839 168.687 285.907 167.758 285.374 167.145C284.843 166.531 283.914 166.465 283.301 166.996C283.282 167.012 283.264 167.029 283.245 167.047C259.836 188.386 219.776 201.126 176.086 201.126C133.162 201.126 93.4843 188.728 69.9465 167.96C69.3383 167.422 68.4096 167.481 67.872 168.09Z" fill="black"/>
<path d="M101 118.683C101 144.379 134.767 165.21 176.422 165.21C218.076 165.21 251.844 144.379 251.844 118.683V72.1562H101V118.683Z" fill="#FF4F67"/>
<path d="M176.422 118.683C218.076 118.683 251.844 97.8525 251.844 72.1566C251.844 46.4606 218.076 25.6299 176.422 25.6299C134.767 25.6299 101 46.4606 101 72.1566C101 97.8525 134.767 118.683 176.422 118.683Z" fill="#A03148"/>
<mask id="path-11-outside-1_1674_1217" maskUnits="userSpaceOnUse" x="98" y="22.6299" width="157" height="146" fill="black">
<rect fill="white" x="98" y="22.6299" width="157" height="146"/>
<path fill-rule="evenodd" clip-rule="evenodd" d="M101 72.1566C101 72.1564 101 72.1563 101 72.1561C101 46.4604 134.768 25.6299 176.422 25.6299C218.076 25.6299 251.843 46.4604 251.844 72.1561C251.844 72.1563 251.844 72.1564 251.844 72.1566V118.683C251.844 144.379 218.076 165.21 176.422 165.21C134.767 165.21 101 144.379 101 118.683V72.1566Z"/>
</mask>
<path d="M101 72.1561L98.0676 72.1561V72.1561H101ZM251.844 72.1561H254.776V72.1561L251.844 72.1561ZM98.0676 72.1561C98.0676 72.1562 98.0676 72.1562 98.0676 72.1562C98.0676 72.1562 98.0676 72.1562 98.0676 72.1562V72.1562C98.0676 72.1562 98.0676 72.1562 98.0676 72.1562C98.0676 72.1562 98.0676 72.1562 98.0676 72.1562V72.1562C98.0676 72.1562 98.0676 72.1562 98.0676 72.1562V72.1562C98.0676 72.1562 98.0676 72.1562 98.0676 72.1562C98.0676 72.1562 98.0676 72.1562 98.0676 72.1562V72.1562C98.0676 72.1562 98.0676 72.1562 98.0676 72.1562C98.0676 72.1562 98.0676 72.1562 98.0676 72.1562V72.1562C98.0676 72.1562 98.0676 72.1562 98.0676 72.1562C98.0676 72.1562 98.0676 72.1562 98.0676 72.1562V72.1562C98.0676 72.1562 98.0676 72.1562 98.0676 72.1562C98.0676 72.1562 98.0676 72.1562 98.0676 72.1562C98.0676 72.1562 98.0676 72.1562 98.0676 72.1562C98.0676 72.1562 98.0676 72.1562 98.0676 72.1562V72.1562C98.0676 72.1562 98.0676 72.1562 98.0676 72.1562C98.0676 72.1562 98.0676 72.1562 98.0676 72.1562V72.1562C98.0676 72.1562 98.0676 72.1562 98.0676 72.1562C98.0676 72.1562 98.0676 72.1562 98.0676 72.1562V72.1563C98.0676 72.1563 98.0676 72.1563 98.0676 72.1563C98.0676 72.1563 98.0676 72.1563 98.0676 72.1563V72.1563C98.0676 72.1563 98.0676 72.1563 98.0676 72.1563C98.0676 72.1563 98.0676 72.1563 98.0676 72.1563V72.1563C98.0676 72.1563 98.0676 72.1563 98.0676 72.1563C98.0676 72.1563 98.0676 72.1563 98.0676 72.1563V72.1563C98.0676 72.1563 98.0676 72.1563 98.0676 72.1563C98.0676 72.1563 98.0676 72.1563 98.0676 72.1563V72.1563C98.0676 72.1563 98.0676 72.1563 98.0676 72.1563C98.0676 72.1563 98.0676 72.1563 98.0676 72.1563V72.1563C98.0676 72.1563 98.0676 72.1563 98.0676 72.1563C98.0676 72.1563 98.0676 72.1563 98.0676 72.1563V72.1563C98.0676 72.1563 98.0676 72.1563 98.0676 72.1563C98.0676 72.1563 98.0676 72.1563 98.0676 72.1563V72.1563C98.0676 72.1563 98.0676 72.1563 98.0676 72.1563C98.0676 72.1563 98.0676 72.1563 98.0676 72.1563V72.1563C98.0676 72.1563 98.0676 72.1563 98.0676 72.1563C98.0676 72.1563 98.0676 72.1563 98.0676 72.1564V72.1564V72.1564C98.0676 72.1564 98.0676 72.1564 98.0676 72.1564C98.0676 72.1564 98.0676 72.1564 98.0676 72.1564V72.1564C98.0676 72.1564 98.0676 72.1564 98.0676 72.1564C98.0676 72.1564 98.0676 72.1564 98.0676 72.1564V72.1564C98.0676 72.1564 98.0676 72.1564 98.0676 72.1564C98.0676 72.1564 98.0676 72.1564 98.0676 72.1564V72.1564C98.0676 72.1564 98.0676 72.1564 98.0676 72.1564C98.0676 72.1564 98.0676 72.1564 98.0676 72.1564V72.1564C98.0676 72.1564 98.0676 72.1564 98.0676 72.1564C98.0676 72.1564 98.0676 72.1564 98.0676 72.1564V72.1564C98.0676 72.1564 98.0676 72.1564 98.0676 72.1564C98.0676 72.1564 98.0676 72.1564 98.0676 72.1564V72.1564C98.0676 72.1564 98.0676 72.1564 98.0676 72.1564C98.0676 72.1564 98.0676 72.1564 98.0676 72.1564V72.1564C98.0676 72.1564 98.0676 72.1564 98.0676 72.1564C98.0676 72.1564 98.0676 72.1564 98.0676 72.1564V72.1565C98.0676 72.1565 98.0676 72.1565 98.0676 72.1565C98.0676 72.1565 98.0676 72.1565 98.0676 72.1565V72.1565C98.0676 72.1565 98.0676 72.1565 98.0676 72.1565C98.0676 72.1565 98.0676 72.1565 98.0676 72.1565V72.1565C98.0676 72.1565 98.0676 72.1565 98.0676 72.1565C98.0676 72.1565 98.0676 72.1565 98.0676 72.1565V72.1565C98.0676 72.1565 98.0676 72.1565 98.0676 72.1565C98.0676 72.1565 98.0676 72.1565 98.0676 72.1565C98.0676 72.1565 98.0676 72.1565 98.0676 72.1565C98.0676 72.1565 98.0676 72.1565 98.0676 72.1565V72.1565C98.0676 72.1565 98.0676 72.1565 98.0676 72.1565C98.0676 72.1565 98.0676 72.1565 98.0676 72.1565V72.1565C98.0676 72.1565 98.0676 72.1565 98.0676 72.1565C98.0676 72.1565 98.0676 72.1565 98.0676 72.1565V72.1565C98.0676 72.1565 98.0676 72.1565 98.0676 72.1565C98.0676 72.1565 98.0676 72.1565 98.0676 72.1565V72.1565C98.0676 72.1565 98.0676 72.1565 98.0676 72.1565V72.1565C98.0676 72.1566 98.0676 72.1566 98.0676 72.1566C98.0676 72.1566 98.0676 72.1566 98.0676 72.1566V72.1566C98.0676 72.1566 98.0676 72.1566 98.0676 72.1566C98.0676 72.1566 98.0676 72.1566 98.0676 72.1566H103.932C103.932 72.1566 103.932 72.1566 103.932 72.1566C103.932 72.1566 103.932 72.1566 103.932 72.1566V72.1566C103.932 72.1566 103.932 72.1566 103.932 72.1566C103.932 72.1566 103.932 72.1566 103.932 72.1565V72.1565C103.932 72.1565 103.932 72.1565 103.932 72.1565V72.1565C103.932 72.1565 103.932 72.1565 103.932 72.1565C103.932 72.1565 103.932 72.1565 103.932 72.1565V72.1565C103.932 72.1565 103.932 72.1565 103.932 72.1565C103.932 72.1565 103.932 72.1565 103.932 72.1565V72.1565C103.932 72.1565 103.932 72.1565 103.932 72.1565C103.932 72.1565 103.932 72.1565 103.932 72.1565V72.1565C103.932 72.1565 103.932 72.1565 103.932 72.1565C103.932 72.1565 103.932 72.1565 103.932 72.1565C103.932 72.1565 103.932 72.1565 103.932 72.1565C103.932 72.1565 103.932 72.1565 103.932 72.1565V72.1565C103.932 72.1565 103.932 72.1565 103.932 72.1565C103.932 72.1565 103.932 72.1565 103.932 72.1565V72.1565C103.932 72.1565 103.932 72.1565 103.932 72.1565C103.932 72.1565 103.932 72.1565 103.932 72.1565V72.1565C103.932 72.1565 103.932 72.1565 103.932 72.1565C103.932 72.1565 103.932 72.1565 103.932 72.1565V72.1564C103.932 72.1564 103.932 72.1564 103.932 72.1564C103.932 72.1564 103.932 72.1564 103.932 72.1564V72.1564C103.932 72.1564 103.932 72.1564 103.932 72.1564C103.932 72.1564 103.932 72.1564 103.932 72.1564V72.1564C103.932 72.1564 103.932 72.1564 103.932 72.1564C103.932 72.1564 103.932 72.1564 103.932 72.1564V72.1564C103.932 72.1564 103.932 72.1564 103.932 72.1564C103.932 72.1564 103.932 72.1564 103.932 72.1564V72.1564C103.932 72.1564 103.932 72.1564 103.932 72.1564C103.932 72.1564 103.932 72.1564 103.932 72.1564V72.1564C103.932 72.1564 103.932 72.1564 103.932 72.1564C103.932 72.1564 103.932 72.1564 103.932 72.1564V72.1564C103.932 72.1564 103.932 72.1564 103.932 72.1564C103.932 72.1564 103.932 72.1564 103.932 72.1564V72.1564C103.932 72.1564 103.932 72.1564 103.932 72.1564C103.932 72.1564 103.932 72.1564 103.932 72.1564V72.1564V72.1564C103.932 72.1563 103.932 72.1563 103.932 72.1563C103.932 72.1563 103.932 72.1563 103.932 72.1563V72.1563C103.932 72.1563 103.932 72.1563 103.932 72.1563C103.932 72.1563 103.932 72.1563 103.932 72.1563V72.1563C103.932 72.1563 103.932 72.1563 103.932 72.1563C103.932 72.1563 103.932 72.1563 103.932 72.1563V72.1563C103.932 72.1563 103.932 72.1563 103.932 72.1563C103.932 72.1563 103.932 72.1563 103.932 72.1563V72.1563C103.932 72.1563 103.932 72.1563 103.932 72.1563C103.932 72.1563 103.932 72.1563 103.932 72.1563V72.1563C103.932 72.1563 103.932 72.1563 103.932 72.1563C103.932 72.1563 103.932 72.1563 103.932 72.1563V72.1563C103.932 72.1563 103.932 72.1563 103.932 72.1563C103.932 72.1563 103.932 72.1563 103.932 72.1563V72.1563C103.932 72.1563 103.932 72.1563 103.932 72.1563C103.932 72.1563 103.932 72.1563 103.932 72.1563V72.1563C103.932 72.1563 103.932 72.1563 103.932 72.1563C103.932 72.1563 103.932 72.1563 103.932 72.1563V72.1562C103.932 72.1562 103.932 72.1562 103.932 72.1562C103.932 72.1562 103.932 72.1562 103.932 72.1562V72.1562C103.932 72.1562 103.932 72.1562 103.932 72.1562C103.932 72.1562 103.932 72.1562 103.932 72.1562V72.1562C103.932 72.1562 103.932 72.1562 103.932 72.1562C103.932 72.1562 103.932 72.1562 103.932 72.1562C103.932 72.1562 103.932 72.1562 103.932 72.1562C103.932 72.1562 103.932 72.1562 103.932 72.1562V72.1562C103.932 72.1562 103.932 72.1562 103.932 72.1562C103.932 72.1562 103.932 72.1562 103.932 72.1562V72.1562C103.932 72.1562 103.932 72.1562 103.932 72.1562C103.932 72.1562 103.932 72.1562 103.932 72.1562V72.1562C103.932 72.1562 103.932 72.1562 103.932 72.1562C103.932 72.1562 103.932 72.1562 103.932 72.1562V72.1562C103.932 72.1562 103.932 72.1562 103.932 72.1562V72.1562C103.932 72.1562 103.932 72.1562 103.932 72.1562C103.932 72.1562 103.932 72.1562 103.932 72.1562V72.1562C103.932 72.1562 103.932 72.1562 103.932 72.1562C103.932 72.1562 103.932 72.1562 103.932 72.1561H98.0676ZM176.422 22.6975C155.14 22.6975 135.733 28.0129 121.551 36.7614C107.416 45.4812 98.0678 57.9136 98.0676 72.1561L103.932 72.1562C103.933 60.7029 111.468 49.8722 124.63 41.7528C137.746 33.6622 156.049 28.5623 176.422 28.5623V22.6975ZM254.776 72.1561C254.776 57.9136 245.428 45.4812 231.292 36.7614C217.111 28.0129 197.703 22.6975 176.422 22.6975V28.5623C196.794 28.5623 215.098 33.6622 228.213 41.7528C241.375 49.8722 248.911 60.7029 248.911 72.1562L254.776 72.1561ZM254.776 72.1566C254.776 72.1566 254.776 72.1566 254.776 72.1566C254.776 72.1566 254.776 72.1566 254.776 72.1566V72.1566C254.776 72.1566 254.776 72.1566 254.776 72.1566C254.776 72.1566 254.776 72.1566 254.776 72.1565V72.1565C254.776 72.1565 254.776 72.1565 254.776 72.1565V72.1565C254.776 72.1565 254.776 72.1565 254.776 72.1565C254.776 72.1565 254.776 72.1565 254.776 72.1565V72.1565C254.776 72.1565 254.776 72.1565 254.776 72.1565C254.776 72.1565 254.776 72.1565 254.776 72.1565V72.1565C254.776 72.1565 254.776 72.1565 254.776 72.1565C254.776 72.1565 254.776 72.1565 254.776 72.1565V72.1565C254.776 72.1565 254.776 72.1565 254.776 72.1565C254.776 72.1565 254.776 72.1565 254.776 72.1565C254.776 72.1565 254.776 72.1565 254.776 72.1565C254.776 72.1565 254.776 72.1565 254.776 72.1565V72.1565C254.776 72.1565 254.776 72.1565 254.776 72.1565C254.776 72.1565 254.776 72.1565 254.776 72.1565V72.1565C254.776 72.1565 254.776 72.1565 254.776 72.1565C254.776 72.1565 254.776 72.1565 254.776 72.1565V72.1565C254.776 72.1565 254.776 72.1565 254.776 72.1565C254.776 72.1565 254.776 72.1565 254.776 72.1565V72.1564C254.776 72.1564 254.776 72.1564 254.776 72.1564C254.776 72.1564 254.776 72.1564 254.776 72.1564V72.1564C254.776 72.1564 254.776 72.1564 254.776 72.1564C254.776 72.1564 254.776 72.1564 254.776 72.1564V72.1564C254.776 72.1564 254.776 72.1564 254.776 72.1564C254.776 72.1564 254.776 72.1564 254.776 72.1564V72.1564C254.776 72.1564 254.776 72.1564 254.776 72.1564C254.776 72.1564 254.776 72.1564 254.776 72.1564V72.1564C254.776 72.1564 254.776 72.1564 254.776 72.1564C254.776 72.1564 254.776 72.1564 254.776 72.1564V72.1564C254.776 72.1564 254.776 72.1564 254.776 72.1564C254.776 72.1564 254.776 72.1564 254.776 72.1564V72.1564C254.776 72.1564 254.776 72.1564 254.776 72.1564C254.776 72.1564 254.776 72.1564 254.776 72.1564V72.1564C254.776 72.1564 254.776 72.1564 254.776 72.1564C254.776 72.1564 254.776 72.1564 254.776 72.1564V72.1564V72.1564C254.776 72.1563 254.776 72.1563 254.776 72.1563C254.776 72.1563 254.776 72.1563 254.776 72.1563V72.1563C254.776 72.1563 254.776 72.1563 254.776 72.1563C254.776 72.1563 254.776 72.1563 254.776 72.1563V72.1563C254.776 72.1563 254.776 72.1563 254.776 72.1563C254.776 72.1563 254.776 72.1563 254.776 72.1563V72.1563C254.776 72.1563 254.776 72.1563 254.776 72.1563C254.776 72.1563 254.776 72.1563 254.776 72.1563V72.1563C254.776 72.1563 254.776 72.1563 254.776 72.1563C254.776 72.1563 254.776 72.1563 254.776 72.1563V72.1563C254.776 72.1563 254.776 72.1563 254.776 72.1563C254.776 72.1563 254.776 72.1563 254.776 72.1563V72.1563C254.776 72.1563 254.776 72.1563 254.776 72.1563C254.776 72.1563 254.776 72.1563 254.776 72.1563V72.1563C254.776 72.1563 254.776 72.1563 254.776 72.1563C254.776 72.1563 254.776 72.1563 254.776 72.1563V72.1563C254.776 72.1563 254.776 72.1563 254.776 72.1563C254.776 72.1563 254.776 72.1563 254.776 72.1563V72.1562C254.776 72.1562 254.776 72.1562 254.776 72.1562C254.776 72.1562 254.776 72.1562 254.776 72.1562V72.1562C254.776 72.1562 254.776 72.1562 254.776 72.1562C254.776 72.1562 254.776 72.1562 254.776 72.1562V72.1562C254.776 72.1562 254.776 72.1562 254.776 72.1562C254.776 72.1562 254.776 72.1562 254.776 72.1562C254.776 72.1562 254.776 72.1562 254.776 72.1562C254.776 72.1562 254.776 72.1562 254.776 72.1562V72.1562C254.776 72.1562 254.776 72.1562 254.776 72.1562C254.776 72.1562 254.776 72.1562 254.776 72.1562V72.1562C254.776 72.1562 254.776 72.1562 254.776 72.1562C254.776 72.1562 254.776 72.1562 254.776 72.1562V72.1562C254.776 72.1562 254.776 72.1562 254.776 72.1562C254.776 72.1562 254.776 72.1562 254.776 72.1562V72.1562C254.776 72.1562 254.776 72.1562 254.776 72.1562V72.1562C254.776 72.1562 254.776 72.1562 254.776 72.1562C254.776 72.1562 254.776 72.1562 254.776 72.1562V72.1562C254.776 72.1562 254.776 72.1562 254.776 72.1562C254.776 72.1562 254.776 72.1562 254.776 72.1561H248.911C248.911 72.1562 248.911 72.1562 248.911 72.1562C248.911 72.1562 248.911 72.1562 248.911 72.1562V72.1562C248.911 72.1562 248.911 72.1562 248.911 72.1562C248.911 72.1562 248.911 72.1562 248.911 72.1562V72.1562C248.911 72.1562 248.911 72.1562 248.911 72.1562V72.1562C248.911 72.1562 248.911 72.1562 248.911 72.1562C248.911 72.1562 248.911 72.1562 248.911 72.1562V72.1562C248.911 72.1562 248.911 72.1562 248.911 72.1562C248.911 72.1562 248.911 72.1562 248.911 72.1562V72.1562C248.911 72.1562 248.911 72.1562 248.911 72.1562C248.911 72.1562 248.911 72.1562 248.911 72.1562V72.1562C248.911 72.1562 248.911 72.1562 248.911 72.1562C248.911 72.1562 248.911 72.1562 248.911 72.1562C248.911 72.1562 248.911 72.1562 248.911 72.1562C248.911 72.1562 248.911 72.1562 248.911 72.1562V72.1562C248.911 72.1562 248.911 72.1562 248.911 72.1562C248.911 72.1562 248.911 72.1562 248.911 72.1562V72.1562C248.911 72.1562 248.911 72.1562 248.911 72.1562C248.911 72.1562 248.911 72.1562 248.911 72.1562V72.1563C248.911 72.1563 248.911 72.1563 248.911 72.1563C248.911 72.1563 248.911 72.1563 248.911 72.1563V72.1563C248.911 72.1563 248.911 72.1563 248.911 72.1563C248.911 72.1563 248.911 72.1563 248.911 72.1563V72.1563C248.911 72.1563 248.911 72.1563 248.911 72.1563C248.911 72.1563 248.911 72.1563 248.911 72.1563V72.1563C248.911 72.1563 248.911 72.1563 248.911 72.1563C248.911 72.1563 248.911 72.1563 248.911 72.1563V72.1563C248.911 72.1563 248.911 72.1563 248.911 72.1563C248.911 72.1563 248.911 72.1563 248.911 72.1563V72.1563C248.911 72.1563 248.911 72.1563 248.911 72.1563C248.911 72.1563 248.911 72.1563 248.911 72.1563V72.1563C248.911 72.1563 248.911 72.1563 248.911 72.1563C248.911 72.1563 248.911 72.1563 248.911 72.1563V72.1563C248.911 72.1563 248.911 72.1563 248.911 72.1563C248.911 72.1563 248.911 72.1563 248.911 72.1563V72.1563C248.911 72.1563 248.911 72.1563 248.911 72.1563C248.911 72.1563 248.911 72.1563 248.911 72.1564V72.1564V72.1564C248.911 72.1564 248.911 72.1564 248.911 72.1564C248.911 72.1564 248.911 72.1564 248.911 72.1564V72.1564C248.911 72.1564 248.911 72.1564 248.911 72.1564C248.911 72.1564 248.911 72.1564 248.911 72.1564V72.1564C248.911 72.1564 248.911 72.1564 248.911 72.1564C248.911 72.1564 248.911 72.1564 248.911 72.1564V72.1564C248.911 72.1564 248.911 72.1564 248.911 72.1564C248.911 72.1564 248.911 72.1564 248.911 72.1564V72.1564C248.911 72.1564 248.911 72.1564 248.911 72.1564C248.911 72.1564 248.911 72.1564 248.911 72.1564V72.1564C248.911 72.1564 248.911 72.1564 248.911 72.1564C248.911 72.1564 248.911 72.1564 248.911 72.1564V72.1564C248.911 72.1564 248.911 72.1564 248.911 72.1564C248.911 72.1564 248.911 72.1564 248.911 72.1564V72.1564C248.911 72.1564 248.911 72.1564 248.911 72.1564C248.911 72.1564 248.911 72.1564 248.911 72.1564V72.1565C248.911 72.1565 248.911 72.1565 248.911 72.1565C248.911 72.1565 248.911 72.1565 248.911 72.1565V72.1565C248.911 72.1565 248.911 72.1565 248.911 72.1565C248.911 72.1565 248.911 72.1565 248.911 72.1565V72.1565C248.911 72.1565 248.911 72.1565 248.911 72.1565C248.911 72.1565 248.911 72.1565 248.911 72.1565V72.1565C248.911 72.1565 248.911 72.1565 248.911 72.1565C248.911 72.1565 248.911 72.1565 248.911 72.1565C248.911 72.1565 248.911 72.1565 248.911 72.1565C248.911 72.1565 248.911 72.1565 248.911 72.1565V72.1565C248.911 72.1565 248.911 72.1565 248.911 72.1565C248.911 72.1565 248.911 72.1565 248.911 72.1565V72.1565C248.911 72.1565 248.911 72.1565 248.911 72.1565C248.911 72.1565 248.911 72.1565 248.911 72.1565V72.1565C248.911 72.1565 248.911 72.1565 248.911 72.1565C248.911 72.1565 248.911 72.1565 248.911 72.1565V72.1565C248.911 72.1565 248.911 72.1565 248.911 72.1565V72.1565C248.911 72.1566 248.911 72.1566 248.911 72.1566C248.911 72.1566 248.911 72.1566 248.911 72.1566V72.1566C248.911 72.1566 248.911 72.1566 248.911 72.1566C248.911 72.1566 248.911 72.1566 248.911 72.1566H254.776ZM254.776 118.683V72.1566H248.911V118.683H254.776ZM176.422 168.142C197.704 168.142 217.111 162.826 231.293 154.078C245.428 145.358 254.776 132.925 254.776 118.683H248.911C248.911 130.136 241.376 140.967 228.214 149.086C215.098 157.177 196.794 162.277 176.422 162.277V168.142ZM98.0676 118.683C98.0676 132.925 107.415 145.358 121.551 154.078C135.733 162.826 155.14 168.142 176.422 168.142V162.277C156.049 162.277 137.745 157.177 124.63 149.086C111.468 140.967 103.932 130.136 103.932 118.683H98.0676ZM98.0676 72.1566V118.683H103.932V72.1566H98.0676Z" fill="black" mask="url(#path-11-outside-1_1674_1217)"/>
<path d="M238.5 100.536C239.127 100.02 239.217 99.0933 238.7 98.4664C238.184 97.8394 237.257 97.7493 236.63 98.2661C236.618 98.2762 236.605 98.2869 236.593 98.2977C222.689 110.142 200.193 117.213 176.419 117.213C151.84 117.213 128.913 109.764 115.089 97.2843C114.486 96.74 113.556 96.7877 113.012 97.3905C112.467 97.9933 112.515 98.9233 113.118 99.4677C127.467 112.421 151.131 120.154 176.418 120.154C200.871 120.154 224.08 112.821 238.5 100.536Z" fill="black"/>
</svg>
