<svg width="77" height="77" viewBox="0 0 77 77" fill="none" xmlns="http://www.w3.org/2000/svg">
<g id="Dino">
<g id="Group">
<path id="Vector" d="M72.2688 27.3555C71.3593 21.095 68.3389 15.3329 63.7076 11.0234C60.5465 8.11564 57.6286 6.85932 55.116 7.27472C50.5163 8.03459 49.1384 9.58472 48.723 10.456C48.6532 10.5954 48.6257 10.752 48.6437 10.9068C48.6617 11.0616 48.7244 11.2077 48.8243 11.3274C51.7321 14.9342 56.5344 13.07 56.7269 12.9889C56.8932 12.9206 57.0747 12.8977 57.2527 12.9226C57.4308 12.9475 57.599 13.0194 57.7401 13.1308C57.8718 13.2321 70.4451 23.2624 65.1058 39.331C65.1058 39.3817 65.1058 39.4222 65.0551 39.4627C64.1334 41.0965 62.7938 42.4557 61.1737 43.401C59.5535 44.3464 57.7111 44.8439 55.8354 44.8426C54.0319 44.7416 52.25 44.4009 50.5365 43.8295C44.3563 42.1273 35.8964 39.7768 24.7415 50.8101C24.2755 51.4383 20.4863 56.6358 18.4296 60.0096C16.2026 63.3509 13.0013 65.926 9.26048 67.3854C13.688 67.6184 20.4559 66.666 28.7435 61.3976L28.2876 58.4189C28.267 58.2859 28.2728 58.1501 28.3046 58.0193C28.3365 57.8885 28.3938 57.7652 28.4733 57.6565C28.5528 57.5479 28.6529 57.4559 28.7679 57.386C28.883 57.316 29.0107 57.2694 29.1437 57.2487C29.2768 57.2281 29.4126 57.2339 29.5434 57.2658C29.6742 57.2976 29.7975 57.3549 29.9061 57.4344C30.0148 57.5139 30.1067 57.6141 30.1767 57.7291C30.2467 57.8441 30.2933 57.9718 30.3139 58.1049L32.0869 69.8271H35.4608L39.0879 52.9377C39.1456 52.669 39.3078 52.4343 39.5386 52.2851C39.7695 52.136 40.0501 52.0846 40.3188 52.1424C40.5875 52.2002 40.8223 52.3623 40.9715 52.5932C41.1206 52.824 41.1719 53.1047 41.1142 53.3734L39.0879 62.8667C42.1211 63.1849 45.1809 63.1509 48.2063 62.7654L47.4667 58.3379C47.4223 58.0692 47.4866 57.7939 47.6452 57.5725C47.8039 57.3512 48.044 57.2019 48.3127 57.1576C48.5814 57.1132 48.8567 57.1774 49.078 57.3361C49.2994 57.4947 49.4487 57.7348 49.493 58.0035L51.2863 69.3914H54.3258L56.0886 54.9033C56.1216 54.6376 56.2584 54.3957 56.4691 54.2305C56.6798 54.0654 56.9474 53.9903 57.2132 54.0218C57.479 54.0548 57.7208 54.1916 57.886 54.4023C58.0511 54.613 58.1262 54.8806 58.0947 55.1464L57.4969 60.0704C58.1555 59.7664 58.8039 59.4422 59.4321 59.0572C63.6169 56.6544 67.0792 53.1712 69.4568 48.972C71.8345 44.7729 73.0401 40.0119 72.9476 35.1872C72.9084 32.5638 72.6816 29.9465 72.2688 27.3555Z" fill="black"/>
<path id="Vector_2" d="M60.425 60.8506C59.3859 61.4302 58.3134 61.9478 57.2132 62.4008L56.3419 69.6347C56.2822 70.1289 56.0426 70.5839 55.6689 70.9128C55.2952 71.2417 54.8134 71.4214 54.3156 71.4179H51.2761C50.7919 71.4245 50.3214 71.2575 49.9497 70.9471C49.578 70.6367 49.3297 70.2035 49.2498 69.7259L48.419 64.7817C46.6858 65.0107 44.9394 65.1258 43.1911 65.1261C41.6507 65.1097 40.1121 65.015 38.5813 64.8425L37.4161 70.2325C37.3173 70.6933 37.0609 71.1053 36.691 71.3974C36.3212 71.6896 35.861 71.8437 35.3898 71.8333H32.0464C31.5577 71.8388 31.0835 71.6675 30.7112 71.351C30.3388 71.0345 30.0934 70.5941 30.0201 70.1109L29.0069 63.5659C21.4386 68.196 15.0254 69.4017 10.4155 69.4017C7.73773 69.4758 5.07294 69.0036 2.58378 68.0136C2.48201 67.9649 2.3867 67.9036 2.30009 67.8313C2.13049 67.6735 2.02006 67.4624 1.98721 67.2331C1.95435 67.0039 2.00105 66.7702 2.11952 66.5712C2.23799 66.3722 2.42109 66.2197 2.6383 66.1393C2.85551 66.0589 3.09372 66.0553 3.31325 66.1292C7.6293 67.1423 14.1338 63.0897 16.6565 58.9459C18.8754 55.2884 22.928 49.7667 23.1002 49.5336L23.2117 49.4121C35.2682 37.4872 44.7717 40.1417 51.0634 41.8742C52.589 42.3907 54.1768 42.7008 55.7847 42.7962C57.2789 42.8023 58.7488 42.4186 60.0494 41.683C61.35 40.9474 62.4363 39.8854 63.201 38.6017C64.6092 34.4959 64.7628 30.0637 63.6422 25.8703C62.5217 21.6768 60.1778 17.912 56.9093 15.0559C54.5081 15.8259 50.0806 16.069 47.2438 12.5838C46.9053 12.1613 46.6933 11.6517 46.6324 11.1138C46.5714 10.5759 46.6639 10.0318 46.8993 9.54431C47.6186 8.10562 49.5538 6.07931 54.7918 5.24852C57.9832 4.73181 61.4381 6.16036 65.0754 9.50378C70.049 14.1278 73.2946 20.3115 74.2748 27.0314C74.7015 29.713 74.9351 32.4217 74.9739 35.1367C75.0804 40.3341 73.7857 45.4643 71.2257 49.9888C68.6657 54.5133 64.9349 58.2652 60.425 60.8506ZM72.2688 27.3556C71.3593 21.0951 68.3389 15.333 63.7076 11.0235C60.5465 8.11575 57.6286 6.85944 55.116 7.27483C50.5163 8.0347 49.1384 9.58483 48.723 10.4561C48.6532 10.5955 48.6257 10.7521 48.6437 10.9069C48.6617 11.0617 48.7244 11.2079 48.8243 11.3275C51.7321 14.9343 56.5344 13.0701 56.7269 12.989C56.8932 12.9207 57.0747 12.8978 57.2527 12.9227C57.4308 12.9476 57.599 13.0195 57.7401 13.1309C57.8718 13.2322 70.4451 23.2625 65.1058 39.3311C65.1058 39.3818 65.1057 39.4223 65.0551 39.4629C64.1334 41.0966 62.7938 42.4558 61.1737 43.4011C59.5535 44.3465 57.7111 44.844 55.8354 44.8427C54.0319 44.7417 52.25 44.401 50.5365 43.8296C44.3563 42.1275 35.8964 39.7769 24.7415 50.8102C24.2755 51.4384 20.4863 56.6359 18.4296 60.0097C16.2026 63.351 13.0014 65.9261 9.26048 67.3855C13.688 67.6185 20.4559 66.6661 28.7435 61.3977L28.2876 58.419C28.267 58.286 28.2728 58.1502 28.3046 58.0194C28.3365 57.8886 28.3938 57.7653 28.4733 57.6566C28.5528 57.548 28.6529 57.456 28.7679 57.3861C28.883 57.3161 29.0107 57.2695 29.1437 57.2488C29.2768 57.2282 29.4126 57.234 29.5434 57.2659C29.6742 57.2977 29.7975 57.3551 29.9061 57.4346C30.0148 57.514 30.1067 57.6142 30.1767 57.7292C30.2467 57.8442 30.2933 57.9719 30.3139 58.105L32.0869 69.8272H35.4608L39.0879 52.9379C39.1456 52.6692 39.3078 52.4344 39.5386 52.2852C39.7695 52.1361 40.0501 52.0848 40.3188 52.1425C40.5875 52.2003 40.8223 52.3624 40.9715 52.5933C41.1206 52.8242 41.1719 53.1048 41.1142 53.3735L39.0879 62.8668C42.1211 63.1851 45.1809 63.1511 48.2063 62.7655L47.4667 58.338C47.4223 58.0693 47.4866 57.794 47.6452 57.5726C47.8039 57.3513 48.044 57.202 48.3127 57.1577C48.5814 57.1133 48.8567 57.1775 49.078 57.3362C49.2994 57.4949 49.4487 57.7349 49.493 58.0036L51.2863 69.3915H54.3258L56.0886 54.9034C56.1216 54.6377 56.2584 54.3958 56.4691 54.2307C56.6798 54.0655 56.9474 53.9905 57.2132 54.0219C57.479 54.0549 57.7208 54.1917 57.886 54.4024C58.0511 54.6131 58.1262 54.8807 58.0947 55.1465L57.4969 60.0705C58.1555 59.7665 58.8039 59.4423 59.4321 59.0573C63.6169 56.6545 67.0792 53.1713 69.4568 48.9721C71.8345 44.773 73.0401 40.012 72.9476 35.1873C72.9084 32.5639 72.6816 29.9467 72.2688 27.3556Z" fill="white"/>
<path id="Vector_3" d="M55.4299 10.9728C55.2975 10.9712 55.1667 10.9437 55.0449 10.8918C54.9221 10.8404 54.809 10.7685 54.7105 10.679C54.57 10.5365 54.4747 10.3556 54.4369 10.159C54.399 9.96251 54.4202 9.75915 54.4978 9.57465C54.546 9.45028 54.6183 9.33666 54.7105 9.2403L54.8625 9.11873L55.0449 9.02754C55.1023 8.99833 55.1638 8.97784 55.2272 8.96675C55.3916 8.9324 55.5618 8.93942 55.7228 8.98716C55.8837 9.03491 56.0302 9.1219 56.1492 9.2403C56.2415 9.33666 56.3138 9.45028 56.362 9.57465C56.425 9.72814 56.4494 9.89477 56.433 10.0599C56.4166 10.225 56.3599 10.3836 56.2678 10.5217C56.1758 10.6597 56.0512 10.7731 55.9051 10.8517C55.759 10.9304 55.5958 10.972 55.4299 10.9728Z" fill="white"/>
</g>
</g>
</svg>
