<svg width="33" height="32" viewBox="0 0 33 32" fill="none" xmlns="http://www.w3.org/2000/svg">
<g id="HandFist">
<path id="Vector" d="M16.5 13C16.5 13.7956 16.1839 14.5587 15.6213 15.1213C15.0587 15.6839 14.2956 16 13.5 16C12.7044 16 11.9413 15.6839 11.3787 15.1213C10.8161 14.5587 10.5 13.7956 10.5 13V8C10.5 7.20435 10.8161 6.44129 11.3787 5.87868C11.9413 5.31607 12.7044 5 13.5 5C14.2956 5 15.0587 5.31607 15.6213 5.87868C16.1839 6.44129 16.5 7.20435 16.5 8V13Z" stroke="black" stroke-width="2" stroke-linecap="round" stroke-linejoin="round"/>
<path id="Vector_2" d="M16.5 8C16.5 7.20435 16.8161 6.44129 17.3787 5.87868C17.9413 5.31607 18.7044 5 19.5 5C20.2956 5 21.0587 5.31607 21.6213 5.87868C22.1839 6.44129 22.5 7.20435 22.5 8V11" stroke="black" stroke-width="2" stroke-linecap="round" stroke-linejoin="round"/>
<path id="Vector_3" d="M16.5 22C16.5 20.6739 17.0268 19.4021 17.9645 18.4645C18.9021 17.5268 20.1739 17 21.5 17H19.5C18.7044 17 17.9413 16.6839 17.3787 16.1213C16.8161 15.5587 16.5 14.7956 16.5 14V12C16.5 11.7348 16.6054 11.4804 16.7929 11.2929C16.9804 11.1054 17.2348 11 17.5 11H25.5C26.2956 11 27.0587 11.3161 27.6213 11.8787C28.1839 12.4413 28.5 13.2044 28.5 14V16C28.5 19.1826 27.2357 22.2348 24.9853 24.4853C22.7348 26.7357 19.6826 28 16.5 28C13.3174 28 10.2652 26.7357 8.01472 24.4853C5.76428 22.2348 4.5 19.1826 4.5 16V11C4.5 10.2044 4.81607 9.44129 5.37868 8.87868C5.94129 8.31607 6.70435 8 7.5 8C8.29565 8 9.05871 8.31607 9.62132 8.87868C10.1839 9.44129 10.5 10.2044 10.5 11V13C10.5 13.7956 10.1839 14.5587 9.62132 15.1213C9.05871 15.6839 8.29565 16 7.5 16C6.70435 16 5.94129 15.6839 5.37868 15.1213C4.81607 14.5587 4.5 13.7956 4.5 13" stroke="#343330" stroke-width="2" stroke-linecap="round" stroke-linejoin="round"/>
</g>
</svg>
