<svg width="16" height="16" viewBox="0 0 16 16" fill="none" xmlns="http://www.w3.org/2000/svg">
<path d="M14.1402 9.105C14.2441 9.07471 14.3353 9.01155 14.4002 8.925C14.4652 8.83845 14.5002 8.73319 14.5002 8.625V6.375C14.5002 6.26681 14.4652 6.16155 14.4002 6.075C14.3353 5.98845 14.2441 5.92529 14.1402 5.895L3.14024 2.52C3.06573 2.49827 2.98717 2.49418 2.9108 2.50807C2.83443 2.52195 2.76234 2.55343 2.70024 2.6C2.63815 2.64657 2.58774 2.70697 2.55303 2.77639C2.51832 2.84582 2.50024 2.92238 2.50024 3V12C2.50024 12.0776 2.51832 12.1542 2.55303 12.2236C2.58774 12.293 2.63815 12.3534 2.70024 12.4C2.76234 12.4466 2.83443 12.478 2.9108 12.4919C2.98717 12.5058 3.06573 12.5017 3.14024 12.48L14.1402 9.105Z" stroke="#343330" stroke-linecap="round" stroke-linejoin="round"/>
<path d="M12.0002 9.76148V12.0002C12.0002 12.1328 11.9476 12.26 11.8538 12.3538C11.76 12.4476 11.6329 12.5002 11.5002 12.5002H9.50024C9.36764 12.5002 9.24046 12.4476 9.14669 12.3538C9.05292 12.26 9.00024 12.1328 9.00024 12.0002V4.31836" stroke="#343330" stroke-linecap="round" stroke-linejoin="round"/>
</svg>
