<svg width="182" height="72" viewBox="0 0 182 72" fill="none" xmlns="http://www.w3.org/2000/svg">
<path fill-rule="evenodd" clip-rule="evenodd" d="M132.06 7.97593C140.889 8.18645 147.907 10.264 154.924 12.5968C177.94 20.2575 185.638 32.1436 169.866 43.8237C145.341 61.9368 88.2172 73.7914 43.9217 68.3204C34.1117 67.1147 20.8306 66.0519 11.0962 60.1638C2.04085 54.689 2.41816 48.1805 6.56851 42.155C10.7943 35.9769 18.9441 30.2909 25.4337 26.6359C53.807 10.6892 110.629 -3.80418 162.018 3.83662C163.074 3.98384 164.131 3.73066 164.433 3.27116C164.735 2.81166 164.206 2.31895 163.225 2.17173C110.327 -5.69183 51.6938 9.11279 22.4905 25.5242C14.4161 30.0818 3.85221 37.6897 0.83377 45.5613C-1.20367 50.9413 0.229788 56.441 8.07772 61.2251C18.4159 67.4972 32.5272 68.7257 42.9408 70.0098C88.6701 75.6605 147.756 63.4593 173.035 44.7521C190.014 32.1981 181.864 19.4106 157.113 11.1763C149.567 8.64525 141.87 6.45792 132.286 6.22992C131.23 6.20509 130.324 6.57611 130.324 7.05799C130.249 7.53987 131.079 7.95111 132.06 7.97593Z" fill="white"/>
<path d="M44.5231 37.925L45.4229 38.2845L45.8863 39.0159L45.4442 39.8426L44.8213 40.533L44.5139 39.8664L43.8388 40.1005L43.0432 40.5795L42.5112 41.3422L41.7748 43.0612L41.6521 44.0825L41.7102 45.24L41.9964 46.3715L43.7804 47.0262L44.9286 46.8866L46.047 46.4862L49.9012 44.3777L50.6416 43.6325L51.0148 42.7807L50.3367 41.7601L48.321 40.5952L46.5345 40.5683L46.7282 40.2407L47.6137 39.8257L48.4529 39.6554L49.736 40.0453L51.999 41.4957L52.6161 42.1269L52.9024 43.2584L52.5429 44.1581L47.8524 47.3284L44.8766 48.4531L43.6366 48.5123L41.7155 48.0302L40.3448 46.8741L39.9854 45.8253L39.8456 44.6028L40.9824 40.8977L41.5145 40.1351L42.8503 38.8925L44.5231 37.925ZM51.9953 34.9651L53.3285 35.1429L54.4944 38.5517L55.3945 40.7193L56.5215 43.5711L57.0171 43.5722L57.6038 42.9271L59.6552 41.3715L61.3748 41.1749L62.3739 41.9688L64.7842 44.9958L64.705 45.748L63.8807 45.7597C63.3987 45.7322 62.9904 45.5312 62.6558 45.1567L61.8734 44.0902L60.9384 43.2063L56.5631 46.1011C56.1513 46.1096 55.7523 45.9901 55.3662 45.7426L54.9877 44.3822L51.4642 35.447L51.525 35.1841L51.9953 34.9651ZM71.3063 38.1319L72.8106 37.7122L72.8709 38.4566L73.1956 39.1296L73.8874 39.6201L75.2297 40.6721L76.5715 42.1535L76.6841 43.0653L76.5116 43.7951L75.9725 44.3522L74.5941 45.0052L73.7544 45.0269L72.9729 44.8356L72.3949 44.5466L72.094 44.226L72.6987 43.5211L73.3758 43.0886L74.6228 42.657L73.0851 41.4127L72.1906 40.4499L71.0528 38.7306C71.109 38.548 71.1935 38.3484 71.3063 38.1319ZM76.2987 32.1859L77.6318 32.3638L78.7977 35.7725L79.6979 37.9401L80.8249 40.7919L81.3204 40.793L81.9071 40.148L83.9585 38.5923L85.6782 38.3957L86.6772 39.1897L89.0875 42.2167L89.0084 42.9688L88.1841 42.9805C87.702 42.9531 87.2937 42.752 86.9592 42.3775L86.1767 41.311L85.2417 40.4272L80.8665 43.3219C80.4546 43.3305 80.0556 43.211 79.6696 42.9634L79.2911 41.603L75.7675 32.6678L75.8283 32.4049L76.2987 32.1859ZM89.3593 36.2904L90.3317 36.4186L91.8934 40.905L92.002 42.5769L90.7487 42.1588L90.1311 41.668L89.6404 40.9149L89.0414 39.1422L88.8603 36.9089L89.3593 36.2904ZM89.8581 33.0711L89.9229 33.782L89.7727 34.4184L88.5344 34.9976L87.6882 34.6733L87.6656 34.1144L88.444 33.3401L89.3754 32.8208L89.8581 33.0711ZM91.5186 29.6859L92.6573 29.9685C92.9478 30.1499 93.1881 30.4225 93.3783 30.786L94.3863 32.9578L95.2353 36.1221L97.3384 35.7412L98.7153 35.7241L100.628 36.0586L99.5062 37.1529L98.3072 37.5707L97.1418 37.704L95.6813 38.2178L95.9681 39.4978L95.9134 40.8251C95.8015 41.1461 95.5775 41.425 95.2412 41.6616L94.282 41.1438L93.627 40.2527L93.0946 39.2072L92.7994 37.8538C92.9554 37.5332 93.2012 37.2519 93.5368 37.0099L93.6437 36.7169L93.4613 35.7718L92.2884 32.1574C92.1392 31.7671 91.839 31.573 91.3879 31.5751L90.8912 31.4915L90.4576 31.8879L90.1228 31.9922L89.8951 31.8779L90.7738 30.4646L91.5186 29.6859ZM98.6906 28.8657L99.8293 29.1483C100.12 29.3298 100.36 29.6023 100.55 29.9659L101.558 32.1377L102.407 35.3019L104.51 34.9211L105.887 34.904L107.8 35.2385L106.678 36.3328L105.479 36.7506L104.314 36.8839L102.853 37.3976L103.14 38.6777L103.085 40.005C102.974 40.326 102.749 40.6048 102.413 40.8414L101.454 40.3236L100.799 39.4325L100.267 38.387L99.9715 37.0336C100.127 36.7131 100.373 36.4318 100.709 36.1897L100.816 35.8968L100.633 34.9516L99.4604 31.3372C99.3112 30.947 99.011 30.7529 98.5599 30.7549L98.0632 30.6714L97.6296 31.0677L97.2948 31.1721L97.0671 31.0577L97.9458 29.6445L98.6906 28.8657ZM105.863 28.0456L107.001 28.3282C107.292 28.5097 107.532 28.7822 107.722 29.1457L108.73 31.3175L109.579 34.4818L111.682 34.1009L113.059 34.0838L114.972 34.4183L113.85 35.5126L112.651 35.9304L111.486 36.0637L110.025 36.5775L110.312 37.8575L110.257 39.1848C110.146 39.5058 109.921 39.7847 109.585 40.0213L108.626 39.5035L107.971 38.6124L107.439 37.5669L107.143 36.2135C107.299 35.8929 107.545 35.6116 107.881 35.3696L107.988 35.0766L107.805 34.1315L106.632 30.5171C106.483 30.1268 106.183 29.9327 105.732 29.9348L105.235 29.8512L104.802 30.2476L104.467 30.3519L104.239 30.2376L105.118 28.8243L105.863 28.0456ZM113.035 27.2254L114.173 27.508C114.464 27.6895 114.704 27.962 114.894 28.3256L115.902 30.4974L116.751 33.6616L118.854 33.2808L120.231 33.2637L122.144 33.5982L121.022 34.6925L119.823 35.1103L118.658 35.2436L117.197 35.7573L117.484 37.0374L117.429 38.3647C117.318 38.6857 117.093 38.9645 116.757 39.2011L115.798 38.6833L115.143 37.7922L114.611 36.7467L114.315 35.3933C114.471 35.0728 114.717 34.7915 115.053 34.5494L115.16 34.2565L114.977 33.3113L113.804 29.6969C113.655 29.3067 113.355 29.1126 112.904 29.1146L112.407 29.0311L111.974 29.4274L111.639 29.5318L111.411 29.4174L112.29 28.0042L113.035 27.2254ZM120.207 26.4053L121.345 26.6879C121.636 26.8694 121.876 27.1419 122.066 27.5054L123.074 29.6772L123.923 32.8415L126.026 32.4606L127.403 32.4435L129.316 32.778L128.194 33.8723L126.995 34.2901L125.83 34.4234L124.369 34.9372L124.656 36.2172L124.601 37.5445C124.49 37.8656 124.265 38.1444 123.929 38.381L122.97 37.8632L122.315 36.9721L121.783 35.9266L121.487 34.5732C121.643 34.2526 121.889 33.9713 122.225 33.7293L122.332 33.4363L122.149 32.4912L120.976 28.8768C120.827 28.4865 120.527 28.2924 120.076 28.2945L119.579 28.2109L119.146 28.6073L118.811 28.7116L118.583 28.5973L119.462 27.184L120.207 26.4053ZM127.379 25.5851L128.517 25.8678C128.808 26.0492 129.048 26.3217 129.238 26.6853L130.246 28.8571L131.095 32.0213L133.198 31.6405L134.575 31.6234L136.488 31.9579L135.366 33.0522L134.167 33.47L133.002 33.6033L131.541 34.1171L131.828 35.3971L131.773 36.7244C131.662 37.0454 131.438 37.3242 131.101 37.5608L130.142 37.043L129.487 36.1519L128.955 35.1064L128.659 33.7531C128.815 33.4325 129.061 33.1512 129.397 32.9091L129.504 32.6162L129.321 31.671L128.148 28.0567C127.999 27.6664 127.699 27.4723 127.248 27.4743L126.751 27.3908L126.318 27.7871L125.983 27.8915L125.755 27.7771L126.634 26.3639L127.379 25.5851ZM134.551 24.765L135.689 25.0476C135.98 25.2291 136.22 25.5016 136.41 25.8651L137.418 28.0369L138.267 31.2012L140.37 30.8203L141.747 30.8032L143.66 31.1377L142.538 32.232L141.339 32.6498L140.174 32.7831L138.713 33.2969L139 34.5769L138.945 35.9042C138.834 36.2253 138.61 36.5041 138.273 36.7407L137.314 36.2229L136.659 35.3318L136.127 34.2863L135.831 32.9329C135.987 32.6123 136.233 32.331 136.569 32.089L136.676 31.796L136.493 30.8509L135.32 27.2365C135.171 26.8462 134.871 26.6521 134.42 26.6542L133.923 26.5706L133.49 26.967L133.155 27.0713L132.927 26.957L133.806 25.5437L134.551 24.765ZM141.723 23.9448L142.861 24.2275C143.152 24.4089 143.392 24.6814 143.582 25.045L144.59 27.2168L145.439 30.3811L147.542 30.0002L148.919 29.9831L150.832 30.3176L149.71 31.4119L148.511 31.8297L147.346 31.963L145.885 32.4768L146.172 33.7568L146.117 35.0841C146.006 35.4051 145.782 35.6839 145.445 35.9205L144.486 35.4027L143.831 34.5116L143.299 33.4661L143.004 32.1128C143.159 31.7922 143.405 31.5109 143.741 31.2688L143.848 30.9759L143.665 30.0307L142.492 26.4164C142.343 26.0261 142.043 25.832 141.592 25.834L141.095 25.7505L140.662 26.1468L140.327 26.2512L140.099 26.1369L140.978 24.7236L141.723 23.9448Z" fill="white"/>
</svg>
